<svg xmlns="http://www.w3.org/2000/svg" xmlns:xlink="http://www.w3.org/1999/xlink" viewBox="0 0 128 128"><defs><style>.cls-1{fill:url(#linear-gradient);}.cls-2{fill:#5b8dc9;}.cls-3{fill:url(#linear-gradient-2);}.cls-4{fill:#8288a1;}.cls-5{fill:url(#linear-gradient-3);}.cls-6{fill:url(#linear-gradient-4);}.cls-7{fill:#c7cdd8;}.cls-8{fill:url(#linear-gradient-5);}.cls-9{fill:url(#linear-gradient-6);}.cls-10{fill:#47566a;}</style><linearGradient id="linear-gradient" x1="64.01" y1="63" x2="64.01" y2="12.99" gradientUnits="userSpaceOnUse"><stop offset="0" stop-color="#7aa8d7"/><stop offset="1" stop-color="#96c8ea"/></linearGradient><linearGradient id="linear-gradient-2" x1="64" y1="115" x2="64" y2="103" gradientUnits="userSpaceOnUse"><stop offset="0" stop-color="#949aaf"/><stop offset="1" stop-color="#c6ccda"/></linearGradient><linearGradient id="linear-gradient-3" x1="64" y1="103.04" x2="64" y2="48" xlink:href="#linear-gradient"/><linearGradient id="linear-gradient-4" x1="64" y1="96" x2="64" y2="56" gradientUnits="userSpaceOnUse"><stop offset="0" stop-color="#dde1e8"/><stop offset="1" stop-color="#f3f4f5"/></linearGradient><linearGradient id="linear-gradient-5" x1="64" y1="87" x2="64" y2="65" xlink:href="#linear-gradient"/><linearGradient id="linear-gradient-6" y1="48" y2="24" xlink:href="#linear-gradient-2"/></defs><title>Contact</title><g id="Contact"><path class="cls-1" d="M122,63s-11,0-30-19c3.06-7.17,3.94-8.27,3.06-10.13s-3.07-2.41-5-2.68c-2.54-.34-50-.17-50.71-.14-1.53,0-4.62.58-5.85,2A3.61,3.61,0,0,0,33,37c1.4,3.28.21.45,3,7C17,63,6,63,6,63-5.14,45.22,3.82,25.53,20.09,19.93c26.93-9.25,60.86-9.26,87.82,0C124,25.47,133.26,45,122,63Z"/><path class="cls-2" d="M36,44C17,63,6,63,6,63,2.5,57.41.49,51.49,1.08,44.79c1.17,8.94,11.28,13.64,19.1,9A82,82,0,0,0,35.1,41.89Z"/><path class="cls-2" d="M87,31H41c-5.34,0-7.38,1.41-8.06,2.87C32.58,33,31,28,41,28H87c10,0,8.42,5,8.06,5.87C94.38,32.41,92.34,31,87,31Z"/><path class="cls-2" d="M123.49,60.52c-.64,1.15-.59,1-1.49,2.48,0,0-11,0-30-19l.9-2.11a80.28,80.28,0,0,0,15.79,12.38c7.7,4.4,17.42-.51,18.25-9.16A28.51,28.51,0,0,1,123.49,60.52Z"/><rect class="cls-3" x="4" y="103" width="120" height="12"/><rect class="cls-4" x="4" y="111" width="120" height="4"/><path class="cls-5" d="M93.41,65.07A9.25,9.25,0,0,1,87,56.26,8.26,8.26,0,0,0,78.74,48H49.26A8.26,8.26,0,0,0,41,56.26a9.25,9.25,0,0,1-6.41,8.81A39.86,39.86,0,0,0,7,103c0,.1-1.91,0,114,0A39.86,39.86,0,0,0,93.41,65.07Z"/><path class="cls-2" d="M121,103H7a37.85,37.85,0,0,1,.21-4H120.79A37.85,37.85,0,0,1,121,103Z"/><circle class="cls-6" cx="64" cy="76" r="20"/><path class="cls-7" d="M64,96A20,20,0,0,1,44.1,74a20,20,0,0,0,39.8,0A20,20,0,0,1,64,96Z"/><path class="cls-2" d="M64,100A20,20,0,0,1,44.1,78a20,20,0,0,0,39.8,0A20,20,0,0,1,64,100Z"/><circle class="cls-8" cx="64" cy="76" r="11"/><path class="cls-2" d="M74.82,78a11,11,0,0,0-21.64,0,11,11,0,1,1,21.64,0Z"/><path class="cls-9" d="M77,48V40A12.44,12.44,0,0,0,87,27.8V26a2,2,0,0,0-2-2H82a2,2,0,0,0-2,2,5,5,0,0,1-5,5H53a5,5,0,0,1-5-5,2,2,0,0,0-2-2H43a2,2,0,0,0-2,2v1.8A12.44,12.44,0,0,0,51,40c.1,0,0-.67,0,8Z"/><rect class="cls-4" x="51" y="44" width="26" height="4"/><path class="cls-10" d="M124,102h-2A40.77,40.77,0,0,0,93.72,64.1,8.21,8.21,0,0,1,88,56.26C88,51.63,84.58,47,78,47V40.81A13.51,13.51,0,0,0,87.33,32c3.5,0,5.88.76,6.69,2a2.83,2.83,0,0,1,0,2.52c-3.25,7.58-3.43,7.47-2.78,8.12C110.36,63.8,121.53,64,122,64c.68,0,.84-.43,1.54-1.55A29.53,29.53,0,0,0,108.24,19c-26.91-9.24-61-9.42-88.48,0A29.52,29.52,0,0,0,4.46,62.47C5.15,63.57,5.31,64,6,64c.47,0,11.64-.22,30.72-19.3a1,1,0,0,0,.22-1.12c-2.92-6.82-3.88-8.06-3-9.52.81-1.29,3.19-2,6.69-2A13.51,13.51,0,0,0,50,40.81V47c-6.39,0-10,4.49-10,9.28a8.21,8.21,0,0,1-5.7,7.84A40.77,40.77,0,0,0,6,102H4a1,1,0,0,0-1,1v12a1,1,0,0,0,1,1H124a1,1,0,0,0,1-1V103A1,1,0,0,0,124,102Zm-2.53-40.05c-2.38-.32-12.48-2.54-28.26-18.17l1.3-3c5.18,4.52,18.24,15.08,29.21,17A28.92,28.92,0,0,1,121.47,61.93Zm-114.94,0a28.81,28.81,0,0,1-2.25-4.21c11-1.9,24-12.46,29.21-17l1.3,3C19,59.39,8.9,61.62,6.53,61.93ZM32.24,33c-1.31,2.12-.32,4,.41,5.74C27.91,43,14.41,54.13,3.53,55.78A27.44,27.44,0,0,1,20.42,20.89c26.53-9.11,60.2-9.25,87.16,0a27.43,27.43,0,0,1,16.89,34.89c-10.88-1.65-24.39-12.83-29.12-17,.73-1.69,1.74-3.59.41-5.74-1.16-1.89-3.84-2.89-7.92-3A21.46,21.46,0,0,0,88,26a3,3,0,0,0-3-3H82a3,3,0,0,0-3,3,4,4,0,0,1-4,4H53a4,4,0,0,1-4-4,3,3,0,0,0-3-3H43a3,3,0,0,0-3,3,21.92,21.92,0,0,0,.18,4C36.08,30.13,33.4,31.13,32.24,33Zm19,6A11.44,11.44,0,0,1,42,27.8V26a1,1,0,0,1,1-1h3a1,1,0,0,1,1,1,6,6,0,0,0,6,6H75a6,6,0,0,0,6-6,1,1,0,0,1,1-1h3a1,1,0,0,1,1,1v1.8A11.44,11.44,0,0,1,76.8,39,1,1,0,0,0,76,40v7H52V40A1,1,0,0,0,51.2,39ZM34.91,66A10.24,10.24,0,0,0,42,56.26,7.25,7.25,0,0,1,49.26,49H78.74A7.25,7.25,0,0,1,86,56.26,10.24,10.24,0,0,0,93.09,66,38.75,38.75,0,0,1,120,102H8A38.75,38.75,0,0,1,34.91,66ZM123,114H5V104H123Z"/><path class="cls-10" d="M64,55A21,21,0,1,0,85,76,21,21,0,0,0,64,55Zm0,40A19,19,0,1,1,83,76,19,19,0,0,1,64,95Z"/><path class="cls-10" d="M64,64A12,12,0,1,0,76,76,12,12,0,0,0,64,64Zm0,22A10,10,0,1,1,74,76,10,10,0,0,1,64,86Z"/></g></svg>